PathFileType	4	(X/Y/Z)	C:/Users/opensim2020/Desktop/walking_exp_matlab/subject01_walking10_straight_03.trc	
DataRate	CameraRate	NumFrames	NumMarkers	Units	OrigDataRate	OrigDataStartFrame	OrigNumFrames	
100.00	100.00	4	43	mm	100.00	2968	317	
Frame#	Time	LFHD			RFHD			LBHD			RBHD			C7			T10			CLAV			STRN			RBAK			LSHO			LUPA			LELB			LFRM			LWRA			LWRB			LFIN			RSHO			RUPA			RELB			RFRM			RWRA			RWRB			RFIN			LASI			RASI			LPSI			RPSI			LTHI			LKNE			LTIB			LANK			LHEE			LTOE			RTHI			RKNE			RTIB			RANK			RHEE			RTOE			*39			*40			*41			*42			
		X1	Y1	Z1	X2	Y2	Z2	X3	Y3	Z3	X4	Y4	Z4	X5	Y5	Z5	X6	Y6	Z6	X7	Y7	Z7	X8	Y8	Z8	X9	Y9	Z9	X10	Y10	Z10	X11	Y11	Z11	X12	Y12	Z12	X13	Y13	Z13	X14	Y14	Z14	X15	Y15	Z15	X16	Y16	Z16	X17	Y17	Z17	X18	Y18	Z18	X19	Y19	Z19	X20	Y20	Z20	X21	Y21	Z21	X22	Y22	Z22	X23	Y23	Z23	X24	Y24	Z24	X25	Y25	Z25	X26	Y26	Z26	X27	Y27	Z27	X28	Y28	Z28	X29	Y29	Z29	X30	Y30	Z30	X31	Y31	Z31	X32	Y32	Z32	X33	Y33	Z33	X34	Y34	Z34	X35	Y35	Z35	X36	Y36	Z36	X37	Y37	Z37	X38	Y38	Z38	X39	Y39	Z39	X40	Y40	Z40	X41	Y41	Z41	X42	Y42	Z42	X43	Y43	Z43	

119	1.180	1401.09155	-149.90396	1670.68469	1510.60657	-121.54642	1681.74548	1426.86438	-253.44138	1605.66284	1543.42896	-225.73119	1615.82825	1462.11975	-257.08887	1419.52405	1470.97864	-277.19943	1127.27161	1455.58069	-109.12375	1362.15723	1449.95032	-57.62617	1208.75952	1542.29724	-296.81662	1224.62109	1296.70447	-176.01781	1387.29419	1215.06946	-207.41702	1200.58105	1219.50769	-224.00984	1052.00134	1192.94568	-197.49673	942.73761	1208.22656	-130.48640	819.94562	1186.23438	-186.37639	820.58618	1177.45166	-145.60580	744.89679	1610.11243	-166.60153	1386.31079	1712.97241	-208.68552	1184.57104	1718.79736	-198.64746	1060.22644	1750.82153	-156.01576	947.53003	1744.50024	-57.30981	847.01477	1771.93335	-106.71334	836.45038	1776.44666	-56.06759	766.87439	1360.63831	-104.11594	928.02728	1576.58362	-103.51299	921.32422	1410.39990	-290.72922	936.62109	1555.34888	-288.33350	939.57385	1301.43494	-68.24700	607.73547	1320.21655	-47.37752	475.82178	1303.98132	-74.38766	287.93515	1352.76636	-76.96838	69.02296	1404.69006	-120.82925	38.85793	1345.82959	70.27705	35.25790	1639.19165	-184.07178	590.45374	1626.41565	-200.31001	429.66974	1638.11536	-335.80688	313.47574	1605.93066	-466.23672	148.96695	1556.21912	-526.58020	143.07904	1600.51587	-379.78128	34.33979	1490.29749	-142.75453	1711.97229	-3101.95679	1973.11243	1023.54865	-3140.70190	2012.50879	1022.04846			 
120	1.190	1398.59729	-142.92017	1671.34863	1508.17285	-114.59593	1682.35217	1424.27100	-246.51752	1606.45605	1540.85486	-218.86339	1616.47437	1459.48584	-250.24205	1420.20020	1468.06189	-270.21884	1127.89160	1452.94946	-102.23451	1362.88147	1447.30872	-50.66864	1209.50854	1539.73511	-289.79965	1225.41235	1294.18701	-168.81126	1388.17908	1212.02844	-198.66028	1201.42810	1216.27502	-214.16954	1052.72864	1189.66248	-186.46860	943.66223	1205.27698	-118.26449	821.52344	1182.90027	-173.92180	821.67847	1174.45508	-132.28978	746.38440	1607.42969	-159.57535	1387.13391	1710.45789	-202.44743	1185.70068	1716.04553	-193.43759	1061.32825	1748.33301	-151.87396	948.25623	1742.70959	-53.80252	847.08276	1769.71484	-103.64725	836.78687	1774.00659	-53.34738	766.53540	1357.60156	-96.84447	928.71863	1573.71655	-96.55503	922.28180	1407.53418	-283.55121	937.18274	1552.43286	-281.14978	939.66437	1299.04846	-64.49899	607.05005	1318.35229	-43.68527	475.22614	1303.09399	-72.30039	287.53131	1352.74573	-76.78040	68.89173	1404.66040	-120.81160	38.88254	1345.94373	70.55656	34.89487	1637.41785	-171.47720	589.89154	1625.23145	-185.23598	429.53754	1636.37683	-322.97626	316.12643	1604.45178	-456.87628	154.68620	1553.92480	-516.83850	151.50618	1599.13770	-377.84109	34.79123	1487.84827	-135.67409	1712.65747	-3102.08545	1973.06348	1023.37024	-3140.72803	2012.52209	1022.00470			 
121	1.200	1396.23755	-135.76237	1671.99463	1505.77722	-107.64993	1682.86450	1421.69031	-239.48534	1607.16187	1538.31018	-212.02226	1617.09973	1456.87512	-243.41640	1420.75781	1465.11694	-263.32791	1128.47876	1450.49194	-95.35851	1363.52600	1444.84326	-43.79678	1210.17542	1537.14014	-283.01242	1226.15686	1291.71313	-161.63687	1388.98962	1208.96301	-189.82217	1202.27258	1212.93457	-204.04900	1053.50952	1186.40503	-175.46475	944.71033	1202.25525	-105.88931	823.11194	1179.50391	-161.31277	822.77179	1171.32153	-118.70049	747.89978	1604.81665	-152.71434	1387.89246	1707.99121	-196.33386	1186.77271	1713.45520	-188.22464	1062.38171	1745.92322	-147.75609	948.95038	1740.98328	-50.23249	847.09631	1767.50891	-100.43381	837.02014	1771.62500	-50.68939	766.15631	1354.92041	-89.89569	929.24976	1571.01099	-89.78424	923.15533	1404.67480	-276.56573	937.70764	1549.79004	-274.72830	940.00958	1296.71130	-60.90294	606.29022	1316.46277	-40.42260	474.58984	1302.13135	-70.38014	287.12387	1352.82288	-76.15189	68.62147	1404.60034	-120.87414	38.91843	1345.70581	70.61632	34.86028	1636.00830	-158.52371	589.55811	1623.65820	-170.19130	429.43982	1634.49231	-309.89951	318.84909	1602.73450	-447.06699	160.33980	1551.60681	-506.55646	159.68582	1598.04919	-375.28970	35.92018	1485.49207	-128.64182	1713.23767	-3101.88428	1973.21252	1023.43719	-3140.63379	2012.51843	1022.04553			 
122	1.210	1393.89441	-128.77492	1672.53125	1503.50818	-100.64221	1683.34570	1419.23901	-232.57095	1607.85608	1535.86267	-205.17189	1617.67456	1454.25037	-236.57538	1421.27991	1462.17871	-256.58344	1129.05261	1448.13379	-88.52940	1364.13086	1442.43762	-37.03003	1210.71692	1534.40942	-276.28943	1226.78101	1289.31677	-154.41168	1389.71021	1205.98291	-180.90573	1203.03223	1209.50305	-194.13348	1053.89709	1182.88098	-164.02895	945.45691	1200.02600	-93.40836	824.81964	1176.01819	-148.53922	823.85895	1168.24280	-105.02046	749.43890	1602.29358	-146.05280	1388.51160	1705.55371	-190.32675	1187.72681	1710.98340	-183.06868	1063.34351	1743.65100	-143.59607	949.63336	1739.33557	-46.66900	847.07587	1765.27881	-97.08321	837.23694	1769.45801	-47.90016	765.86230	1352.58716	-83.13239	929.60443	1568.52026	-83.10611	923.97266	1401.90027	-269.70245	938.20355	1546.99011	-268.00256	939.78571	1294.45935	-57.24330	605.61621	1314.57959	-37.43597	473.96368	1301.08289	-68.43063	286.72498	1352.64197	-75.94975	68.46381	1404.53369	-120.90430	38.95505	1345.76575	70.77644	34.65451	1634.05554	-145.68828	589.34192	1621.91370	-154.99384	429.53488	1632.64331	-296.40289	321.62695	1601.09119	-436.81717	166.23123	1549.30652	-496.05182	167.82288	1596.85168	-371.71378	38.41483	1483.18262	-121.67834	1713.71057	-3101.96411	1972.93018	1023.77484	-3140.62793	2012.46765	1021.92084			 
